<svg width="16" height="16" viewBox="0 0 16 16" fill="none" xmlns="http://www.w3.org/2000/svg">
<path d="M2.66665 7.66622V10.3329C2.66665 10.8862 3.11331 11.3329 3.66665 11.3329C4.21998 11.3329 4.66665 10.8862 4.66665 10.3329V7.66622C4.66665 7.11289 4.21998 6.66622 3.66665 6.66622C3.11331 6.66622 2.66665 7.11289 2.66665 7.66622ZM6.66665 7.66622V10.3329C6.66665 10.8862 7.11331 11.3329 7.66665 11.3329C8.21998 11.3329 8.66665 10.8862 8.66665 10.3329V7.66622C8.66665 7.11289 8.21998 6.66622 7.66665 6.66622C7.11331 6.66622 6.66665 7.11289 6.66665 7.66622ZM2.33331 14.6662H13C13.5533 14.6662 14 14.2196 14 13.6662C14 13.1129 13.5533 12.6662 13 12.6662H2.33331C1.77998 12.6662 1.33331 13.1129 1.33331 13.6662C1.33331 14.2196 1.77998 14.6662 2.33331 14.6662ZM10.6666 7.66622V10.3329C10.6666 10.8862 11.1133 11.3329 11.6666 11.3329C12.22 11.3329 12.6666 10.8862 12.6666 10.3329V7.66622C12.6666 7.11289 12.22 6.66622 11.6666 6.66622C11.1133 6.66622 10.6666 7.11289 10.6666 7.66622ZM7.04665 0.992891L1.77998 3.76622C1.50665 3.90622 1.33331 4.19289 1.33331 4.49956C1.33331 4.95956 1.70665 5.33289 2.16665 5.33289H13.1733C13.6266 5.33289 14 4.95956 14 4.49956C14 4.19289 13.8266 3.90622 13.5533 3.76622L8.28665 0.992891C7.89998 0.786224 7.43331 0.786224 7.04665 0.992891Z" fill="black"/>
</svg>
