<svg width="16" height="16" viewBox="0 0 16 16" fill="none" xmlns="http://www.w3.org/2000/svg">
<path d="M12.9533 8.65325C12.98 8.43992 13 8.22659 13 7.99992C13 7.77325 12.98 7.55992 12.9533 7.34659L14.36 6.24659C14.4866 6.14659 14.52 5.96659 14.44 5.81992L13.1066 3.51325C13.0266 3.36659 12.8466 3.31325 12.7 3.36659L11.04 4.03325C10.6933 3.76659 10.32 3.54659 9.91329 3.37992L9.65995 1.61325C9.63995 1.45325 9.49995 1.33325 9.33329 1.33325H6.66662C6.49995 1.33325 6.35995 1.45325 6.33995 1.61325L6.08662 3.37992C5.67995 3.54659 5.30662 3.77325 4.95995 4.03325L3.29995 3.36659C3.14662 3.30659 2.97329 3.36659 2.89329 3.51325L1.55995 5.81992C1.47329 5.96659 1.51329 6.14659 1.63995 6.24659L3.04662 7.34659C3.01995 7.55992 2.99995 7.77992 2.99995 7.99992C2.99995 8.21992 3.01995 8.43992 3.04662 8.65325L1.63995 9.75325C1.51329 9.85325 1.47995 10.0333 1.55995 10.1799L2.89329 12.4866C2.97329 12.6333 3.15329 12.6866 3.29995 12.6333L4.95995 11.9666C5.30662 12.2333 5.67995 12.4533 6.08662 12.6199L6.33995 14.3866C6.35995 14.5466 6.49995 14.6666 6.66662 14.6666H9.33329C9.49995 14.6666 9.63995 14.5466 9.65995 14.3866L9.91329 12.6199C10.32 12.4533 10.6933 12.2266 11.04 11.9666L12.7 12.6333C12.8533 12.6933 13.0266 12.6333 13.1066 12.4866L14.44 10.1799C14.52 10.0333 14.4866 9.85325 14.36 9.75325L12.9533 8.65325ZM7.99995 10.3333C6.71329 10.3333 5.66662 9.28659 5.66662 7.99992C5.66662 6.71325 6.71329 5.66659 7.99995 5.66659C9.28662 5.66659 10.3333 6.71325 10.3333 7.99992C10.3333 9.28659 9.28662 10.3333 7.99995 10.3333Z" fill="black"/>
</svg>
