<svg width="16" height="16" viewBox="0 0 16 16" fill="none" xmlns="http://www.w3.org/2000/svg">
<path d="M9.33333 6.33333H11.3333C11.7 6.33333 12 6.03333 12 5.66667C12 5.3 11.7 5 11.3333 5H9.33333C8.96667 5 8.66667 5.3 8.66667 5.66667C8.66667 6.03333 8.96667 6.33333 9.33333 6.33333ZM9.33333 11H11.3333C11.7 11 12 10.7 12 10.3333C12 9.96667 11.7 9.66667 11.3333 9.66667H9.33333C8.96667 9.66667 8.66667 9.96667 8.66667 10.3333C8.66667 10.7 8.96667 11 9.33333 11ZM12.6667 14H3.33333C2.6 14 2 13.4 2 12.6667V3.33333C2 2.6 2.6 2 3.33333 2H12.6667C13.4 2 14 2.6 14 3.33333V12.6667C14 13.4 13.4 14 12.6667 14ZM4.66667 7.33333H6.66667C7.03333 7.33333 7.33333 7.03333 7.33333 6.66667V4.66667C7.33333 4.3 7.03333 4 6.66667 4H4.66667C4.3 4 4 4.3 4 4.66667V6.66667C4 7.03333 4.3 7.33333 4.66667 7.33333ZM4.66667 4.66667H6.66667V6.66667H4.66667V4.66667ZM4.66667 12H6.66667C7.03333 12 7.33333 11.7 7.33333 11.3333V9.33333C7.33333 8.96667 7.03333 8.66667 6.66667 8.66667H4.66667C4.3 8.66667 4 8.96667 4 9.33333V11.3333C4 11.7 4.3 12 4.66667 12ZM4.66667 9.33333H6.66667V11.3333H4.66667V9.33333Z" fill="black"/>
</svg>
