<svg width="94" height="36" viewBox="0 0 94 36" fill="none" xmlns="http://www.w3.org/2000/svg">
<path d="M1.26554 31.6455V33.3353H3.2429V33.8682H1.26554V35.9458H0.614258V31.1126H3.57861V31.6455H1.26554Z" fill="#01CAB0"/>
<path d="M6.47792 34.1515L5.72256 32.1851C5.70018 32.1267 5.67668 32.0592 5.65206 31.9828C5.62744 31.9041 5.60394 31.8209 5.58156 31.7332C5.53456 31.9153 5.48644 32.0671 5.4372 32.1885L4.68185 34.1515H6.47792ZM7.8342 35.9458H7.33063C7.27244 35.9458 7.22544 35.9312 7.18963 35.902C7.15382 35.8728 7.12696 35.8357 7.10906 35.7907L6.6592 34.6237H4.50056L4.05071 35.7907C4.03728 35.8312 4.01154 35.8671 3.97349 35.8986C3.93545 35.9301 3.88845 35.9458 3.83249 35.9458H3.32892L5.25256 31.1126H5.91056L7.8342 35.9458Z" fill="#01CAB0"/>
<path d="M9.01764 35.9458H8.36636V31.1126H9.01764V35.9458Z" fill="#01CAB0"/>
<path d="M13.4005 31.6623H11.8428V35.9458H11.1949V31.6623H9.63384V31.1126H13.4005V31.6623Z" fill="#01CAB0"/>
<path d="M17.9113 31.1126V35.9458H17.26V33.7467H14.665V35.9458H14.0137V31.1126H14.665V33.2678H17.26V31.1126H17.9113Z" fill="#01CAB0"/>
<path d="M26.4444 33.5309C26.4444 33.8929 26.3874 34.2223 26.2732 34.5191C26.1591 34.8159 25.9979 35.07 25.7898 35.2814C25.5817 35.4928 25.331 35.6569 25.0378 35.7738C24.7468 35.8885 24.4246 35.9458 24.0709 35.9458H22.2749V31.1126H24.0709C24.4246 31.1126 24.7468 31.171 25.0378 31.2879C25.331 31.4026 25.5817 31.5668 25.7898 31.7804C25.9979 31.9917 26.1591 32.2458 26.2732 32.5426C26.3874 32.8395 26.4444 33.1689 26.4444 33.5309ZM25.7764 33.5309C25.7764 33.2341 25.7361 32.9687 25.6555 32.7349C25.5749 32.501 25.4608 32.3032 25.3131 32.1413C25.1654 31.9794 24.9863 31.8557 24.7759 31.7703C24.5656 31.6848 24.3306 31.6421 24.0709 31.6421H22.9262V35.4163H24.0709C24.3306 35.4163 24.5656 35.3736 24.7759 35.2881C24.9863 35.2027 25.1654 35.0801 25.3131 34.9205C25.4608 34.7586 25.5749 34.5607 25.6555 34.3269C25.7361 34.093 25.7764 33.8277 25.7764 33.5309Z" fill="#01CAB0"/>
<path d="M28.6148 33.4533C28.8028 33.4533 28.9684 33.4308 29.1116 33.3859C29.2571 33.3386 29.378 33.2734 29.4742 33.1902C29.5727 33.1048 29.6465 33.0036 29.6958 32.8867C29.745 32.7697 29.7696 32.6405 29.7696 32.4988C29.7696 32.211 29.6756 31.994 29.4876 31.8478C29.2996 31.7017 29.0176 31.6286 28.6416 31.6286H27.9299V33.4533H28.6148ZM30.8372 35.9458H30.2598C30.1412 35.9458 30.0539 35.8997 29.9979 35.8075L28.7491 34.0807C28.711 34.0267 28.6696 33.9885 28.6248 33.966C28.5823 33.9412 28.5152 33.9289 28.4234 33.9289H27.9299V35.9458H27.282V31.1126H28.6416C28.946 31.1126 29.209 31.144 29.4306 31.207C29.6521 31.2677 29.8345 31.3565 29.9778 31.4735C30.1232 31.5904 30.2307 31.732 30.3001 31.8984C30.3694 32.0626 30.4041 32.247 30.4041 32.4516C30.4041 32.6225 30.3773 32.7821 30.3236 32.9305C30.2698 33.0789 30.1915 33.2127 30.0886 33.3319C29.9878 33.4488 29.8636 33.5489 29.7159 33.6321C29.5704 33.7153 29.4048 33.7782 29.2191 33.8209C29.3019 33.8682 29.3735 33.9367 29.4339 34.0267L30.8372 35.9458Z" fill="#01CAB0"/>
<path d="M32.0421 35.9458H31.3908V31.1126H32.0421V35.9458Z" fill="#01CAB0"/>
<path d="M37.083 31.1126L35.1224 35.9458H34.5383L32.5777 31.1126H33.0981C33.1563 31.1126 33.2033 31.1272 33.2391 31.1564C33.2749 31.1856 33.3017 31.2227 33.3196 31.2677L34.6759 34.6776C34.705 34.7541 34.733 34.8373 34.7599 34.9272C34.789 35.0172 34.8147 35.1116 34.8371 35.2106C34.8595 35.1116 34.8829 35.0172 34.9076 34.9272C34.9322 34.8373 34.959 34.7541 34.9881 34.6776L36.3411 31.2677C36.3545 31.2295 36.3802 31.1946 36.4183 31.1632C36.4586 31.1294 36.5067 31.1126 36.5626 31.1126H37.083Z" fill="#01CAB0"/>
<path d="M40.5829 35.4129L40.5795 35.9458H37.6152V31.1126H40.5795V31.6455H38.2664V33.2509H40.1397V33.7636H38.2664V35.4129H40.5829Z" fill="#01CAB0"/>
<path d="M45.2872 31.1126V35.9458H44.9616C44.9101 35.9458 44.8664 35.9368 44.8306 35.9189C44.7971 35.9009 44.7635 35.8705 44.7299 35.8278L41.9469 32.1851C41.9513 32.2413 41.9547 32.2964 41.9569 32.3504C41.9592 32.4044 41.9603 32.4549 41.9603 32.5022V35.9458H41.3896V31.1126H41.7253C41.7544 31.1126 41.779 31.1148 41.7991 31.1193C41.8193 31.1216 41.8372 31.1272 41.8529 31.1362C41.8685 31.1429 41.8842 31.1542 41.8999 31.1699C41.9155 31.1834 41.9323 31.2014 41.9502 31.2239L44.7333 34.8632C44.7288 34.8047 44.7243 34.7485 44.7199 34.6945C44.7176 34.6383 44.7165 34.5855 44.7165 34.536V31.1126H45.2872Z" fill="#01CAB0"/>
<path d="M52.7006 31.6623H51.1428V35.9458H50.4949V31.6623H48.9338V31.1126H52.7006V31.6623Z" fill="#01CAB0"/>
<path d="M56.2814 35.4129L56.2781 35.9458H53.3137V31.1126H56.2781V31.6455H53.965V33.2509H55.8383V33.7636H53.965V35.4129H56.2814Z" fill="#01CAB0"/>
<path d="M60.3605 34.9475C60.3963 34.9475 60.4276 34.9621 60.4545 34.9913L60.713 35.2713C60.516 35.5006 60.2766 35.6794 59.9946 35.8075C59.7148 35.9357 59.3757 35.9998 58.9774 35.9998C58.6327 35.9998 58.3194 35.9402 58.0374 35.821C57.7554 35.6996 57.5148 35.531 57.3156 35.3151C57.1164 35.097 56.9619 34.8362 56.8523 34.5326C56.7426 34.2291 56.6878 33.8951 56.6878 33.5309C56.6878 33.1666 56.7449 32.8327 56.859 32.5292C56.9731 32.2256 57.1332 31.9648 57.3391 31.7467C57.5472 31.5285 57.7956 31.3599 58.0844 31.2407C58.3731 31.1193 58.692 31.0586 59.0411 31.0586C59.3836 31.0586 59.6857 31.1137 59.9476 31.2239C60.2094 31.334 60.4399 31.4836 60.6391 31.6725L60.4243 31.9726C60.4108 31.9951 60.3929 32.0142 60.3706 32.03C60.3504 32.0435 60.3224 32.0502 60.2866 32.0502C60.2463 32.0502 60.1971 32.0288 60.1389 31.9861C60.0807 31.9412 60.0046 31.8917 59.9106 31.8377C59.8166 31.7838 59.6991 31.7354 59.5581 31.6927C59.4171 31.6477 59.2437 31.6252 59.0378 31.6252C58.7893 31.6252 58.5622 31.6691 58.3563 31.7568C58.1504 31.8422 57.9724 31.967 57.8225 32.1312C57.6748 32.2953 57.5595 32.4954 57.4767 32.7315C57.3939 32.9676 57.3525 33.2341 57.3525 33.5309C57.3525 33.8322 57.395 34.1009 57.4801 34.337C57.5674 34.5731 57.6849 34.7732 57.8326 34.9374C57.9825 35.0993 58.1582 35.2229 58.3596 35.3084C58.5633 35.3938 58.7826 35.4365 59.0176 35.4365C59.1609 35.4365 59.2896 35.4287 59.4037 35.4129C59.5201 35.3949 59.6264 35.368 59.7226 35.332C59.8211 35.296 59.9118 35.251 59.9946 35.1971C60.0796 35.1409 60.1635 35.0745 60.2463 34.9981C60.2844 34.9643 60.3224 34.9475 60.3605 34.9475Z" fill="#01CAB0"/>
<path d="M65.2651 31.1126V35.9458H64.6138V33.7467H62.0187V35.9458H61.3674V31.1126H62.0187V33.2678H64.6138V31.1126H65.2651Z" fill="#01CAB0"/>
<path d="M70.2918 31.1126V35.9458H69.9662C69.9147 35.9458 69.8711 35.9368 69.8353 35.9189C69.8017 35.9009 69.7681 35.8705 69.7346 35.8278L66.9515 32.1851C66.956 32.2413 66.9593 32.2964 66.9616 32.3504C66.9638 32.4044 66.9649 32.4549 66.9649 32.5022V35.9458H66.3942V31.1126H66.7299C66.759 31.1126 66.7836 31.1148 66.8038 31.1193C66.8239 31.1216 66.8418 31.1272 66.8575 31.1362C66.8732 31.1429 66.8888 31.1542 66.9045 31.1699C66.9202 31.1834 66.937 31.2014 66.9549 31.2239L69.7379 34.8632C69.7334 34.8047 69.729 34.7485 69.7245 34.6945C69.7223 34.6383 69.7211 34.5855 69.7211 34.536V31.1126H70.2918Z" fill="#01CAB0"/>
<path d="M75.8659 33.5309C75.8659 33.8929 75.8088 34.2257 75.6946 34.5292C75.5805 34.8305 75.4193 35.0903 75.2112 35.3084C75.0031 35.5265 74.7524 35.6962 74.4592 35.8177C74.1683 35.9368 73.846 35.9964 73.4924 35.9964C73.1387 35.9964 72.8165 35.9368 72.5255 35.8177C72.2345 35.6962 71.985 35.5265 71.7769 35.3084C71.5687 35.0903 71.4076 34.8305 71.2934 34.5292C71.1793 34.2257 71.1222 33.8929 71.1222 33.5309C71.1222 33.1689 71.1793 32.8372 71.2934 32.5359C71.4076 32.2323 71.5687 31.9715 71.7769 31.7534C71.985 31.533 72.2345 31.3621 72.5255 31.2407C72.8165 31.1193 73.1387 31.0586 73.4924 31.0586C73.846 31.0586 74.1683 31.1193 74.4592 31.2407C74.7524 31.3621 75.0031 31.533 75.2112 31.7534C75.4193 31.9715 75.5805 32.2323 75.6946 32.5359C75.8088 32.8372 75.8659 33.1689 75.8659 33.5309ZM75.1978 33.5309C75.1978 33.2341 75.1575 32.9676 75.0769 32.7315C74.9964 32.4954 74.8822 32.2964 74.7345 32.1345C74.5868 31.9704 74.4077 31.8445 74.1974 31.7568C73.987 31.6691 73.752 31.6252 73.4924 31.6252C73.235 31.6252 73.0011 31.6691 72.7907 31.7568C72.5803 31.8445 72.4002 31.9704 72.2502 32.1345C72.1025 32.2964 71.9884 32.4954 71.9078 32.7315C71.8272 32.9676 71.7869 33.2341 71.7869 33.5309C71.7869 33.8277 71.8272 34.0941 71.9078 34.3302C71.9884 34.5641 72.1025 34.7631 72.2502 34.9272C72.4002 35.0891 72.5803 35.2139 72.7907 35.3016C73.0011 35.3871 73.235 35.4298 73.4924 35.4298C73.752 35.4298 73.987 35.3871 74.1974 35.3016C74.4077 35.2139 74.5868 35.0891 74.7345 34.9272C74.8822 34.7631 74.9964 34.5641 75.0769 34.3302C75.1575 34.0941 75.1978 33.8277 75.1978 33.5309Z" fill="#01CAB0"/>
<path d="M79.4263 35.3961V35.9458H76.697V31.1126H77.3449V35.3961H79.4263Z" fill="#01CAB0"/>
<path d="M84.2671 33.5309C84.2671 33.8929 84.21 34.2257 84.0959 34.5292C83.9817 34.8305 83.8206 35.0903 83.6124 35.3084C83.4043 35.5265 83.1536 35.6962 82.8604 35.8177C82.5695 35.9368 82.2472 35.9964 81.8936 35.9964C81.54 35.9964 81.2177 35.9368 80.9267 35.8177C80.6358 35.6962 80.3862 35.5265 80.1781 35.3084C79.9699 35.0903 79.8088 34.8305 79.6947 34.5292C79.5805 34.2257 79.5235 33.8929 79.5235 33.5309C79.5235 33.1689 79.5805 32.8372 79.6947 32.5359C79.8088 32.2323 79.9699 31.9715 80.1781 31.7534C80.3862 31.533 80.6358 31.3621 80.9267 31.2407C81.2177 31.1193 81.54 31.0586 81.8936 31.0586C82.2472 31.0586 82.5695 31.1193 82.8604 31.2407C83.1536 31.3621 83.4043 31.533 83.6124 31.7534C83.8206 31.9715 83.9817 32.2323 84.0959 32.5359C84.21 32.8372 84.2671 33.1689 84.2671 33.5309ZM83.599 33.5309C83.599 33.2341 83.5587 32.9676 83.4782 32.7315C83.3976 32.4954 83.2834 32.2964 83.1357 32.1345C82.988 31.9704 82.809 31.8445 82.5986 31.7568C82.3882 31.6691 82.1532 31.6252 81.8936 31.6252C81.6362 31.6252 81.4023 31.6691 81.1919 31.7568C80.9816 31.8445 80.8014 31.9704 80.6515 32.1345C80.5037 32.2964 80.3896 32.4954 80.309 32.7315C80.2284 32.9676 80.1882 33.2341 80.1882 33.5309C80.1882 33.8277 80.2284 34.0941 80.309 34.3302C80.3896 34.5641 80.5037 34.7631 80.6515 34.9272C80.8014 35.0891 80.9816 35.2139 81.1919 35.3016C81.4023 35.3871 81.6362 35.4298 81.8936 35.4298C82.1532 35.4298 82.3882 35.3871 82.5986 35.3016C82.809 35.2139 82.988 35.0891 83.1357 34.9272C83.2834 34.7631 83.3976 34.5641 83.4782 34.3302C83.5587 34.0941 83.599 33.8277 83.599 33.5309Z" fill="#01CAB0"/>
<path d="M89.0059 33.6219V35.477C88.7642 35.6524 88.5057 35.7839 88.2304 35.8716C87.9574 35.9571 87.6575 35.9998 87.3307 35.9998C86.9435 35.9998 86.5943 35.9402 86.2833 35.821C85.9722 35.6996 85.7058 35.531 85.4843 35.3151C85.2649 35.097 85.096 34.8362 84.9773 34.5326C84.8587 34.2291 84.7994 33.8951 84.7994 33.5309C84.7994 33.1621 84.8565 32.826 84.9706 32.5224C85.087 32.2188 85.2515 31.9591 85.4641 31.7433C85.6767 31.5252 85.9352 31.3565 86.2396 31.2374C86.544 31.1182 86.8842 31.0586 87.2602 31.0586C87.4504 31.0586 87.6272 31.0732 87.7906 31.1024C87.954 31.1294 88.1051 31.1699 88.2438 31.2239C88.3826 31.2756 88.5113 31.3397 88.6299 31.4161C88.7485 31.4903 88.8593 31.5746 88.9623 31.6691L88.7776 31.9659C88.7485 32.0109 88.7105 32.0401 88.6635 32.0536C88.6187 32.0648 88.5684 32.0536 88.5124 32.0199C88.4587 31.9884 88.3971 31.9501 88.3278 31.9052C88.2584 31.8602 88.1733 31.8175 88.0726 31.777C87.9741 31.7343 87.8566 31.6983 87.7201 31.6691C87.5858 31.6398 87.4258 31.6252 87.24 31.6252C86.9692 31.6252 86.7242 31.6702 86.5048 31.7601C86.2855 31.8478 86.0986 31.9749 85.9442 32.1413C85.7898 32.3054 85.6711 32.5055 85.5883 32.7416C85.5055 32.9755 85.4641 33.2386 85.4641 33.5309C85.4641 33.8344 85.5066 34.1065 85.5917 34.3471C85.679 34.5855 85.8021 34.789 85.961 34.9576C86.1221 35.124 86.3168 35.251 86.5451 35.3387C86.7734 35.4264 87.0297 35.4703 87.3139 35.4703C87.5377 35.4703 87.7358 35.4455 87.9081 35.3961C88.0827 35.3443 88.2528 35.2735 88.4184 35.1836V34.1211H87.6698C87.6272 34.1211 87.5925 34.1088 87.5657 34.084C87.5411 34.0593 87.5288 34.0289 87.5288 33.993V33.6219H89.0059Z" fill="#01CAB0"/>
<path d="M91.5967 34.0199V35.9458H90.9454V34.0199L89.1829 31.1126H89.7536C89.8118 31.1126 89.8577 31.1272 89.8913 31.1564C89.9249 31.1834 89.954 31.2194 89.9786 31.2643L91.0797 33.143C91.12 33.2217 91.1569 33.2959 91.1905 33.3656C91.2241 33.4331 91.2532 33.5017 91.2778 33.5714C91.3024 33.5017 91.3304 33.4331 91.3617 33.3656C91.3931 33.2959 91.4277 33.2217 91.4658 33.143L92.5636 31.2643C92.5837 31.2261 92.6117 31.1913 92.6475 31.1598C92.6833 31.1283 92.7292 31.1126 92.7851 31.1126H93.3592L91.5967 34.0199Z" fill="#01CAB0"/>
<path d="M0 26.7452V0.473633H3.56939V26.7452H0Z" fill="#01CAB0"/>
<path d="M22.5187 19.279L14.0532 9.69874V26.7259H10.4838V0L22.4814 13.116L34.6098 0V26.7456H31.0404V9.71849L22.5187 19.279Z" fill="#01CAB0"/>
<path d="M54.2508 0.513672L65.9307 26.9828H61.8567L59.0909 20.3655C59.0909 20.3655 54.419 20.405 51.2607 21.6297C47.7287 23.0124 44.4583 26.9828 44.4583 26.9828H40.5152L52.4754 0.513672H54.2508ZM57.5025 16.9285L53.1108 7.84205L48.0651 19.5556C49.0555 18.963 49.3172 18.7062 51.1299 17.9556C52.9239 17.2248 57.5025 16.9285 57.5025 16.9285Z" fill="#01CAB0"/>
<path d="M74.2844 0.513672L90.3185 20.6618V0.572929H94.0001V26.9828H90.3933L76.0784 8.59268V26.9828H72.509V0.513672H74.2844Z" fill="#01CAB0"/>
</svg>
