<svg width="368" height="143" viewBox="0 0 368 143" fill="none" xmlns="http://www.w3.org/2000/svg">
<path d="M4.95474 125.185V131.77H12.6959V133.846H4.95474V141.942H2.40503V123.109H14.0102V125.185H4.95474Z" fill="black"/>
<path d="M25.3606 134.95L22.4035 127.288C22.3159 127.06 22.2239 126.797 22.1275 126.499C22.0311 126.193 21.9391 125.869 21.8515 125.527C21.6675 126.237 21.4791 126.828 21.2864 127.301L18.3292 134.95H25.3606ZM30.6704 141.942H28.6989C28.4711 141.942 28.2871 141.885 28.1469 141.771C28.0067 141.658 27.9016 141.513 27.8315 141.338L26.0704 136.79H17.6195L15.8584 141.338C15.8058 141.495 15.705 141.636 15.5561 141.758C15.4071 141.881 15.2231 141.942 15.0041 141.942H13.0327L20.5635 123.109H23.1395L30.6704 141.942Z" fill="black"/>
<path d="M35.3034 141.942H32.7537V123.109H35.3034V141.942Z" fill="black"/>
<path d="M52.462 125.251H46.3637V141.942H43.8272V125.251H37.7157V123.109H52.462V125.251Z" fill="black"/>
<path d="M70.1213 123.109V141.942H67.5715V133.373H57.4121V141.942H54.8624V123.109H57.4121V131.507H67.5715V123.109H70.1213Z" fill="black"/>
<path d="M103.527 132.532C103.527 133.943 103.304 135.226 102.857 136.383C102.41 137.539 101.779 138.53 100.965 139.353C100.15 140.177 99.1684 140.816 98.0206 141.272C96.8816 141.719 95.6199 141.942 94.2355 141.942H87.2041V123.109H94.2355C95.6199 123.109 96.8816 123.336 98.0206 123.792C99.1684 124.239 100.15 124.879 100.965 125.711C101.779 126.535 102.41 127.525 102.857 128.681C103.304 129.838 103.527 131.121 103.527 132.532ZM100.912 132.532C100.912 131.375 100.754 130.342 100.439 129.43C100.123 128.519 99.6766 127.748 99.0984 127.117C98.5201 126.486 97.8191 126.004 96.9955 125.671C96.1719 125.339 95.2519 125.172 94.2355 125.172H89.7538V139.879H94.2355C95.2519 139.879 96.1719 139.712 96.9955 139.379C97.8191 139.046 98.5201 138.569 99.0984 137.947C99.6766 137.316 100.123 136.545 100.439 135.634C100.754 134.722 100.912 133.689 100.912 132.532Z" fill="black"/>
<path d="M112.024 132.23C112.76 132.23 113.409 132.142 113.969 131.967C114.539 131.783 115.012 131.529 115.389 131.205C115.774 130.872 116.063 130.477 116.256 130.022C116.449 129.566 116.545 129.062 116.545 128.51C116.545 127.389 116.177 126.543 115.441 125.974C114.705 125.404 113.601 125.119 112.129 125.119H109.343V132.23H112.024ZM120.725 141.942H118.464C118 141.942 117.658 141.763 117.439 141.403L112.55 134.674C112.401 134.464 112.239 134.315 112.064 134.227C111.897 134.131 111.634 134.083 111.275 134.083H109.343V141.942H106.806V123.109H112.129C113.321 123.109 114.35 123.231 115.218 123.477C116.085 123.713 116.799 124.059 117.36 124.515C117.93 124.971 118.35 125.523 118.622 126.171C118.893 126.811 119.029 127.529 119.029 128.326C119.029 128.992 118.924 129.614 118.714 130.193C118.504 130.771 118.197 131.292 117.794 131.757C117.4 132.212 116.913 132.602 116.335 132.926C115.765 133.25 115.117 133.496 114.39 133.662C114.714 133.846 114.994 134.114 115.231 134.464L120.725 141.942Z" fill="black"/>
<path d="M125.442 141.942H122.892V123.109H125.442V141.942Z" fill="black"/>
<path d="M145.176 123.109L137.501 141.942H135.214L127.539 123.109H129.576C129.804 123.109 129.988 123.166 130.128 123.279C130.268 123.393 130.373 123.538 130.443 123.713L135.753 137.001C135.867 137.298 135.976 137.623 136.081 137.973C136.195 138.324 136.296 138.692 136.384 139.077C136.471 138.692 136.563 138.324 136.66 137.973C136.756 137.623 136.861 137.298 136.975 137.001L142.272 123.713C142.324 123.564 142.425 123.428 142.574 123.306C142.732 123.174 142.92 123.109 143.139 123.109H145.176Z" fill="black"/>
<path d="M158.878 139.866L158.865 141.942H147.26V123.109H158.865V125.185H149.809V131.441H157.143V133.439H149.809V139.866H158.878Z" fill="black"/>
<path d="M177.295 123.109V141.942H176.02C175.819 141.942 175.648 141.907 175.508 141.837C175.376 141.767 175.245 141.649 175.113 141.482L164.218 127.288C164.235 127.507 164.249 127.722 164.257 127.932C164.266 128.142 164.27 128.339 164.27 128.523V141.942H162.036V123.109H163.35C163.464 123.109 163.561 123.117 163.64 123.135C163.718 123.144 163.789 123.166 163.85 123.201C163.911 123.227 163.973 123.271 164.034 123.332C164.095 123.385 164.161 123.455 164.231 123.542L175.126 137.723C175.109 137.496 175.091 137.277 175.074 137.066C175.065 136.847 175.061 136.641 175.061 136.449V123.109H177.295Z" fill="black"/>
<path d="M206.317 125.251H200.219V141.942H197.683V125.251H191.571V123.109H206.317V125.251Z" fill="black"/>
<path d="M220.336 139.866L220.323 141.942H208.718V123.109H220.323V125.185H211.268V131.441H218.601V133.439H211.268V139.866H220.336Z" fill="black"/>
<path d="M236.305 138.052C236.445 138.052 236.568 138.109 236.673 138.223L237.685 139.314C236.914 140.207 235.977 140.904 234.873 141.403C233.778 141.903 232.45 142.153 230.89 142.153C229.541 142.153 228.314 141.92 227.21 141.456C226.106 140.983 225.165 140.326 224.385 139.485C223.605 138.635 223 137.618 222.571 136.435C222.142 135.253 221.927 133.951 221.927 132.532C221.927 131.113 222.15 129.811 222.597 128.629C223.044 127.446 223.671 126.429 224.477 125.579C225.292 124.73 226.264 124.072 227.394 123.608C228.525 123.135 229.773 122.898 231.14 122.898C232.481 122.898 233.664 123.113 234.689 123.542C235.714 123.972 236.616 124.554 237.396 125.29L236.555 126.46C236.502 126.548 236.432 126.622 236.345 126.683C236.266 126.736 236.156 126.762 236.016 126.762C235.858 126.762 235.666 126.679 235.438 126.513C235.21 126.337 234.912 126.145 234.544 125.934C234.176 125.724 233.716 125.536 233.164 125.369C232.612 125.194 231.933 125.106 231.127 125.106C230.154 125.106 229.265 125.277 228.459 125.619C227.653 125.952 226.956 126.438 226.369 127.078C225.791 127.717 225.34 128.497 225.016 129.417C224.691 130.337 224.529 131.375 224.529 132.532C224.529 133.706 224.696 134.753 225.029 135.673C225.37 136.593 225.83 137.373 226.409 138.013C226.996 138.643 227.684 139.125 228.472 139.458C229.27 139.791 230.128 139.958 231.048 139.958C231.609 139.958 232.113 139.927 232.56 139.866C233.015 139.796 233.431 139.69 233.808 139.55C234.194 139.41 234.549 139.235 234.873 139.025C235.206 138.806 235.534 138.547 235.858 138.249C236.007 138.118 236.156 138.052 236.305 138.052Z" fill="black"/>
<path d="M255.506 123.109V141.942H252.956V133.373H242.797V141.942H240.247V123.109H242.797V131.507H252.956V123.109H255.506Z" fill="black"/>
<path d="M275.186 123.109V141.942H273.911C273.709 141.942 273.538 141.907 273.398 141.837C273.267 141.767 273.135 141.649 273.004 141.482L262.108 127.288C262.126 127.507 262.139 127.722 262.148 127.932C262.157 128.142 262.161 128.339 262.161 128.523V141.942H259.927V123.109H261.241C261.355 123.109 261.451 123.117 261.53 123.135C261.609 123.144 261.679 123.166 261.74 123.201C261.802 123.227 261.863 123.271 261.924 123.332C261.986 123.385 262.051 123.455 262.122 123.542L273.017 137.723C272.999 137.496 272.982 137.277 272.964 137.066C272.956 136.847 272.951 136.641 272.951 136.449V123.109H275.186Z" fill="black"/>
<path d="M297.007 132.532C297.007 133.943 296.784 135.239 296.337 136.422C295.89 137.596 295.259 138.608 294.444 139.458C293.629 140.308 292.648 140.97 291.5 141.443C290.361 141.907 289.1 142.139 287.715 142.139C286.331 142.139 285.069 141.907 283.93 141.443C282.791 140.97 281.814 140.308 280.999 139.458C280.184 138.608 279.553 137.596 279.107 136.422C278.66 135.239 278.436 133.943 278.436 132.532C278.436 131.121 278.66 129.829 279.107 128.655C279.553 127.472 280.184 126.456 280.999 125.606C281.814 124.747 282.791 124.081 283.93 123.608C285.069 123.135 286.331 122.898 287.715 122.898C289.1 122.898 290.361 123.135 291.5 123.608C292.648 124.081 293.629 124.747 294.444 125.606C295.259 126.456 295.89 127.472 296.337 128.655C296.784 129.829 297.007 131.121 297.007 132.532ZM294.392 132.532C294.392 131.375 294.234 130.337 293.919 129.417C293.603 128.497 293.156 127.722 292.578 127.091C292 126.451 291.299 125.961 290.475 125.619C289.652 125.277 288.732 125.106 287.715 125.106C286.708 125.106 285.792 125.277 284.968 125.619C284.145 125.961 283.439 126.451 282.852 127.091C282.274 127.722 281.827 128.497 281.512 129.417C281.196 130.337 281.039 131.375 281.039 132.532C281.039 133.689 281.196 134.727 281.512 135.647C281.827 136.558 282.274 137.334 282.852 137.973C283.439 138.604 284.145 139.09 284.968 139.432C285.792 139.765 286.708 139.931 287.715 139.931C288.732 139.931 289.652 139.765 290.475 139.432C291.299 139.09 292 138.604 292.578 137.973C293.156 137.334 293.603 136.558 293.919 135.647C294.234 134.727 294.392 133.689 294.392 132.532Z" fill="black"/>
<path d="M310.946 139.8V141.942H300.261V123.109H302.797V139.8H310.946Z" fill="black"/>
<path d="M329.897 132.532C329.897 133.943 329.674 135.239 329.227 136.422C328.78 137.596 328.149 138.608 327.334 139.458C326.519 140.308 325.538 140.97 324.39 141.443C323.251 141.907 321.99 142.139 320.605 142.139C319.221 142.139 317.959 141.907 316.82 141.443C315.681 140.97 314.704 140.308 313.889 139.458C313.074 138.608 312.443 137.596 311.997 136.422C311.55 135.239 311.326 133.943 311.326 132.532C311.326 131.121 311.55 129.829 311.997 128.655C312.443 127.472 313.074 126.456 313.889 125.606C314.704 124.747 315.681 124.081 316.82 123.608C317.959 123.135 319.221 122.898 320.605 122.898C321.99 122.898 323.251 123.135 324.39 123.608C325.538 124.081 326.519 124.747 327.334 125.606C328.149 126.456 328.78 127.472 329.227 128.655C329.674 129.829 329.897 131.121 329.897 132.532ZM327.282 132.532C327.282 131.375 327.124 130.337 326.809 129.417C326.493 128.497 326.046 127.722 325.468 127.091C324.89 126.451 324.189 125.961 323.365 125.619C322.542 125.277 321.622 125.106 320.605 125.106C319.598 125.106 318.682 125.277 317.858 125.619C317.035 125.961 316.329 126.451 315.742 127.091C315.164 127.722 314.717 128.497 314.402 129.417C314.086 130.337 313.929 131.375 313.929 132.532C313.929 133.689 314.086 134.727 314.402 135.647C314.717 136.558 315.164 137.334 315.742 137.973C316.329 138.604 317.035 139.09 317.858 139.432C318.682 139.765 319.598 139.931 320.605 139.931C321.622 139.931 322.542 139.765 323.365 139.432C324.189 139.09 324.89 138.604 325.468 137.973C326.046 137.334 326.493 136.558 326.809 135.647C327.124 134.727 327.282 133.689 327.282 132.532Z" fill="black"/>
<path d="M348.449 132.887V140.115C347.503 140.799 346.491 141.311 345.413 141.653C344.344 141.986 343.17 142.153 341.891 142.153C340.375 142.153 339.008 141.92 337.79 141.456C336.572 140.983 335.53 140.326 334.662 139.485C333.804 138.635 333.142 137.618 332.678 136.435C332.213 135.253 331.981 133.951 331.981 132.532C331.981 131.095 332.205 129.785 332.651 128.602C333.107 127.419 333.751 126.407 334.583 125.566C335.416 124.716 336.428 124.059 337.619 123.595C338.811 123.131 340.143 122.898 341.615 122.898C342.36 122.898 343.052 122.955 343.691 123.069C344.331 123.174 344.922 123.332 345.466 123.542C346.009 123.744 346.513 123.994 346.977 124.291C347.441 124.581 347.875 124.909 348.278 125.277L347.555 126.434C347.441 126.609 347.293 126.723 347.109 126.775C346.933 126.819 346.736 126.775 346.517 126.644C346.307 126.521 346.066 126.372 345.794 126.197C345.523 126.022 345.19 125.855 344.795 125.698C344.41 125.531 343.95 125.391 343.415 125.277C342.89 125.163 342.263 125.106 341.536 125.106C340.476 125.106 339.516 125.282 338.658 125.632C337.799 125.974 337.067 126.469 336.463 127.117C335.858 127.757 335.394 128.537 335.07 129.457C334.745 130.368 334.583 131.393 334.583 132.532C334.583 133.715 334.75 134.775 335.083 135.713C335.425 136.641 335.906 137.434 336.529 138.091C337.159 138.74 337.922 139.235 338.815 139.577C339.709 139.918 340.712 140.089 341.825 140.089C342.701 140.089 343.477 139.993 344.151 139.8C344.835 139.598 345.501 139.322 346.149 138.972V134.832H343.218C343.052 134.832 342.916 134.784 342.811 134.687C342.714 134.591 342.666 134.473 342.666 134.333V132.887H348.449Z" fill="black"/>
<path d="M358.592 134.438V141.942H356.042V134.438L349.142 123.109H351.376C351.604 123.109 351.784 123.166 351.915 123.279C352.047 123.385 352.161 123.525 352.257 123.7L356.568 131.021C356.726 131.327 356.87 131.616 357.002 131.888C357.133 132.151 357.247 132.418 357.343 132.69C357.44 132.418 357.549 132.151 357.672 131.888C357.795 131.616 357.93 131.327 358.079 131.021L362.377 123.7C362.456 123.551 362.565 123.415 362.706 123.293C362.846 123.17 363.025 123.109 363.244 123.109H365.492L358.592 134.438Z" fill="black"/>
<path d="M0 104.219V1.84692H13.9738V104.219H0Z" fill="black"/>
<path d="M88.1588 75.1238L55.0169 37.7928V104.142H41.0431V0L88.0125 51.1089L135.494 0V104.219H121.52V37.8698L88.1588 75.1238Z" fill="black"/>
<path d="M212.386 2.00159L258.111 105.143H242.162L231.335 79.3576C231.335 79.3576 213.044 79.5116 200.68 84.2838C186.853 89.6718 174.05 105.143 174.05 105.143H158.613L205.436 2.00159H212.386ZM225.116 65.9647L207.923 30.5579L188.17 76.2018C192.047 73.8927 193.071 72.8921 200.168 69.9671C207.191 67.1192 225.116 65.9647 225.116 65.9647Z" fill="black"/>
<path d="M290.815 2.00159L353.587 80.5122V2.23249H368V105.143H353.88L297.839 33.4828V105.143H283.865V2.00159H290.815Z" fill="black"/>
</svg>
